<svg xmlns="http://www.w3.org/2000/svg" width="146.367" height="109.776" viewBox="0 0 146.367 109.776"><defs><style>.a{opacity:0.86;}</style></defs><path class="a" d="M142.937,96.018H125.822l-4.757-11.892A31.856,31.856,0,0,0,91.339,64H55.033A31.865,31.865,0,0,0,25.305,84.126L20.548,96.018H3.436A3.429,3.429,0,0,0,.108,100.28l1.715,6.861a3.428,3.428,0,0,0,3.328,2.6h5.737a18.168,18.168,0,0,0-6.312,13.722v13.722a18.147,18.147,0,0,0,4.574,11.987v15.457a9.149,9.149,0,0,0,9.148,9.148h9.148a9.149,9.149,0,0,0,9.148-9.148V155.48h73.184v9.148a9.149,9.149,0,0,0,9.148,9.148h9.148a9.149,9.149,0,0,0,9.148-9.148V149.171a18.136,18.136,0,0,0,4.574-11.987V123.462a18.175,18.175,0,0,0-6.309-13.722h5.738a3.428,3.428,0,0,0,3.328-2.6l1.715-6.861a3.432,3.432,0,0,0-3.33-4.262Zm-100.645-5.1A13.723,13.723,0,0,1,55.033,82.3H91.339a13.723,13.723,0,0,1,12.741,8.625l5.7,14.245H36.595ZM27.447,137.127c-5.489,0-9.148-3.648-9.148-9.119s3.659-9.119,9.148-9.119,13.722,8.207,13.722,13.679S32.935,137.127,27.447,137.127Zm91.48,0c-5.489,0-13.722.912-13.722-4.56s8.233-13.679,13.722-13.679,9.148,3.648,9.148,9.119S124.415,137.127,118.926,137.127Z" transform="translate(-0.004 -64)"/></svg>