<svg xmlns="http://www.w3.org/2000/svg" width="139.916" height="111.933" viewBox="0 0 139.916 111.933"><defs><style>.a{opacity:0.78;}</style></defs><path class="a" d="M31.312,48.265,28.6,58.4a20.614,20.614,0,0,0-.527,7.518l-7.7,6.335a1.978,1.978,0,0,1-3.2-1.917l3.375-16.763A1.976,1.976,0,0,0,18.8,51.217L1.783,49.566A1.978,1.978,0,0,1,.878,45.95l14.243-9.466a1.981,1.981,0,0,0,.433-2.905L4.686,20.372a1.979,1.979,0,0,1,1.919-3.2l16.763,3.375A1.979,1.979,0,0,0,25.73,18.8L27.381,1.781A1.979,1.979,0,0,1,31,.876l9.466,14.241a1.981,1.981,0,0,0,2.905.433l13.2-10.867a1.978,1.978,0,0,1,3.2,1.917L57.294,18.877c-.592.667-1.187,1.331-1.729,2.055l-7.028,9.394L46.2,33.456A21.087,21.087,0,0,0,31.312,48.265ZM139.432,77.234l-2.715,10.135a13.7,13.7,0,0,1-3.837,6.419,14.619,14.619,0,0,1-1.915,1.53l-3.058,11.418a6.989,6.989,0,0,1-8.568,4.947l-6.757-1.81a7,7,0,0,1-4.947-8.568l1.81-6.757L55.386,80.063l-1.81,6.757a7,7,0,0,1-8.568,4.947l-6.757-1.81A6.993,6.993,0,0,1,33.3,81.39l3.058-11.418a14.563,14.563,0,0,1-.894-2.285,13.7,13.7,0,0,1-.114-7.477l2.715-10.137a13.889,13.889,0,0,1,8.065-9.228,14.065,14.065,0,0,1,4.042-1.032l3.964-5.3,7.028-9.394a24.624,24.624,0,0,1,8.294-7.072,24,24,0,0,1,3.29-1.419,24.269,24.269,0,0,1,7.048-1.32,24.683,24.683,0,0,1,7.308.831l26.82,7.186a24.64,24.64,0,0,1,6.744,2.936A24.357,24.357,0,0,1,131.9,44.079l1.39,11.65.785,6.569a14.1,14.1,0,0,1,4.971,6.543,13.806,13.806,0,0,1,.383,8.393ZM55.869,51.223a6.6,6.6,0,0,0-8.563,4.925,6.6,6.6,0,0,0,4.952,8.546c4.055,1.087,9.956,3.391,11.038-.651s-3.373-11.733-7.426-12.82ZM119.4,57.382l-1.39-11.65a10.492,10.492,0,0,0-7.7-8.893l-26.82-7.186A10.5,10.5,0,0,0,72.368,33.5L65.339,42.9l37.6,10.074Zm4.042,11.947c-4.055-1.087-11.762,3.347-12.844,7.387s5.179,5,9.234,6.084a6.973,6.973,0,1,0,3.609-13.471Z" transform="translate(0.006 0.009)"/></svg>