<svg xmlns="http://www.w3.org/2000/svg" width="75" height="75" viewBox="0 0 75 75">
  <defs>
    <style>
      .cls-1 {
        fill: #2a2738;
      }
    </style>
  </defs>
  <path id="city-solid" class="cls-1" d="M72.188,28.125H56.25V3.516C56.25,1.573,54.991,0,53.438,0H36.563C35.009,0,33.75,1.573,33.75,3.516V14.063h-7.5V2.344A2.148,2.148,0,0,0,24.375,0H22.5a2.148,2.148,0,0,0-1.875,2.344V14.063h-7.5V2.344A2.148,2.148,0,0,0,11.25,0H9.375A2.148,2.148,0,0,0,7.5,2.344V14.063H2.813C1.259,14.063,0,15.636,0,17.578V70.313C0,72.9,1.679,75,3.75,75h67.5C73.321,75,75,72.9,75,70.313V31.641C75,29.7,73.74,28.125,72.188,28.125ZM15,59.18a1.611,1.611,0,0,1-1.406,1.758H8.906A1.611,1.611,0,0,1,7.5,59.18V53.32a1.611,1.611,0,0,1,1.406-1.758h4.688A1.611,1.611,0,0,1,15,53.32Zm0-14.062a1.611,1.611,0,0,1-1.406,1.758H8.906A1.611,1.611,0,0,1,7.5,45.117V39.258A1.611,1.611,0,0,1,8.906,37.5h4.688A1.611,1.611,0,0,1,15,39.258Zm0-14.062a1.611,1.611,0,0,1-1.406,1.758H8.906A1.611,1.611,0,0,1,7.5,31.055V25.2a1.611,1.611,0,0,1,1.406-1.758h4.688A1.611,1.611,0,0,1,15,25.2ZM30,59.18a1.611,1.611,0,0,1-1.406,1.758H23.906A1.611,1.611,0,0,1,22.5,59.18V53.32a1.611,1.611,0,0,1,1.406-1.758h4.688A1.611,1.611,0,0,1,30,53.32Zm0-14.062a1.611,1.611,0,0,1-1.406,1.758H23.906A1.611,1.611,0,0,1,22.5,45.117V39.258A1.611,1.611,0,0,1,23.906,37.5h4.688A1.611,1.611,0,0,1,30,39.258Zm0-14.062a1.611,1.611,0,0,1-1.406,1.758H23.906A1.611,1.611,0,0,1,22.5,31.055V25.2a1.611,1.611,0,0,1,1.406-1.758h4.688A1.611,1.611,0,0,1,30,25.2ZM48.75,45.117a1.611,1.611,0,0,1-1.406,1.758H42.656a1.611,1.611,0,0,1-1.406-1.758V39.258A1.611,1.611,0,0,1,42.656,37.5h4.688a1.611,1.611,0,0,1,1.406,1.758Zm0-14.062a1.611,1.611,0,0,1-1.406,1.758H42.656a1.611,1.611,0,0,1-1.406-1.758V25.2a1.611,1.611,0,0,1,1.406-1.758h4.688A1.611,1.611,0,0,1,48.75,25.2Zm0-14.062a1.611,1.611,0,0,1-1.406,1.758H42.656a1.611,1.611,0,0,1-1.406-1.758V11.133a1.611,1.611,0,0,1,1.406-1.758h4.688a1.611,1.611,0,0,1,1.406,1.758ZM67.5,59.18a1.611,1.611,0,0,1-1.406,1.758H61.406A1.611,1.611,0,0,1,60,59.18V53.32a1.611,1.611,0,0,1,1.406-1.758h4.688A1.611,1.611,0,0,1,67.5,53.32Zm0-14.062a1.611,1.611,0,0,1-1.406,1.758H61.406A1.611,1.611,0,0,1,60,45.117V39.258A1.611,1.611,0,0,1,61.406,37.5h4.688A1.611,1.611,0,0,1,67.5,39.258Z"/>
</svg>
