<svg id="Google_plus" data-name="Google plus" xmlns="http://www.w3.org/2000/svg" width="64" height="64" viewBox="0 0 64 64">
  <defs>
    <style>
      .cls-1 {
        fill: none;
      }

      .cls-2 {
        fill: #fff;
        fill-rule: evenodd;
      }
    </style>
  </defs>
  <rect id="Rectangle_121" data-name="Rectangle 121" class="cls-1" width="16" height="16" transform="translate(8 6)"/>
  <path id="Path_51" data-name="Path 51" class="cls-2" d="M32.64,27.608H63.36c0,1.882.64,3.137.64,5.02C64,50.824,51.84,64,32.64,64,14.72,64,0,49.569,0,32S14.72,0,32.64,0A31.958,31.958,0,0,1,54.4,8.157l-8.96,8.784a17.23,17.23,0,0,0-12.8-5.02c-10.88,0-20.48,8.784-20.48,20.078s8.96,20.078,20.48,20.078c12.8,0,17.92-8.784,18.56-13.8H32.64Z"/>
</svg>
