<?xml version="1.0" encoding="UTF-8"?>
<svg height="64" width="64" version="1.1" viewBox="0 0 480 480" xml:space="preserve" xmlns="http://www.w3.org/2000/svg">
<g fill="#fff">
	
		
			<path d="m207.84 363.62c4.651 3.447 16.872 21.808 26.724 40.247 1.745 3.266 5.143 5.288 8.818 5.288 0.165 0 0.33-4e-3 0.496-0.012 3.864-0.191 7.271-2.594 8.748-6.17 7.471-18.085 17.5-36.248 21.909-39.795 86.217-16.435 148.68-91.955 148.68-179.96 0-101.03-82.192-183.22-183.22-183.22s-183.22 82.191-183.22 183.22c0 43.476 15.506 85.631 43.66 118.7 27.609 32.426 65.715 54.309 107.4 61.697zm32.159-343.62c89.999 0 163.22 73.22 163.22 163.22 0 78.693-56.064 146.18-133.31 160.48-5.833 1.082-12.907 5.314-25.081 28.751-0.845 1.628-1.663 3.248-2.444 4.83-1.077-1.779-2.208-3.613-3.373-5.458-13.615-21.545-20.549-26.67-26.772-27.736-78.488-13.449-135.46-81.101-135.46-160.86 0-89.999 73.22-163.22 163.22-163.22z"/>
			<path d="m321.91 371.24c-5.384-1.204-10.736 2.183-11.944 7.573-1.206 5.389 2.185 10.736 7.573 11.943 38.87 8.705 56.574 22.028 56.574 30.724 0 5.96-9.235 16.039-35.263 24.832-26.119 8.825-61.041 13.684-98.336 13.684-37.309 0-72.242-4.859-98.364-13.684-26.03-8.793-35.267-18.872-35.267-24.832 0-8.013 15.829-20.594 50.584-29.283 5.357-1.34 8.615-6.769 7.275-12.127s-6.768-8.614-12.127-7.276c-42.388 10.597-65.732 27.888-65.732 48.686 0 12.442 8.478 30.138 48.865 43.78 28.132 9.503 65.338 14.736 104.77 14.736 39.415 0 76.611-5.233 104.74-14.735 40.385-13.643 48.861-31.338 48.861-43.78 0-21.972-25.642-39.814-72.203-50.241z"/>
			<path d="m151.75 159.74v83.16c0 5.523 4.478 10 10 10h13.285v24.934c0 5.523 4.477 10 10 10 5.522 0 10-4.477 10-10v-24.934h96.451v24.934c0 5.523 4.478 10 10 10s10-4.477 10-10v-24.934h13.285c5.522 0 10-4.477 10-10v-83.16h24.934c5.522 0 10-4.477 10-10s-4.478-10-10-10h-24.934v-36.584c0-5.523-4.478-10-10-10h-163.02c-5.522 0-10 4.477-10 10v36.584h-24.949c-5.522 0-10 4.477-10 10s4.478 10 10 10h24.949zm116.44 73.161h-49.869v-26.584h49.869v26.584zm46.584 0h-26.584v-26.584h26.584v26.584zm-143.02-119.74h143.02v73.16h-143.02v-73.16zm0 93.161h26.568v26.584h-26.568v-26.584z"/>
		
	
</g>















</svg>
