<svg xmlns="http://www.w3.org/2000/svg" width="75" height="75" viewBox="0 0 75 75">
  <defs>
    <style>
      .cls-1 {
        fill: #2a2738;
      }
    </style>
  </defs>
  <path id="question-solid" class="cls-1" d="M63.2,0c-17.011,0-28.03,4.79-36.68,13.334-1.569,1.55-1.085,3.675,1.1,4.816l9.194,4.791a6.805,6.805,0,0,0,7.087-.608c5.339-4.6,9.3-7.244,17.638-7.244,6.557,0,14.666,2.9,14.666,7.27,0,3.3-3.968,5-10.442,7.495-7.55,2.909-17.54,6.53-17.54,15.587v1.434c0,1.942,2.29,3.516,5.115,3.516H68.784c2.825,0,5.115-1.574,5.115-3.516v-.846c0-6.278,26.7-6.54,26.7-23.529C100.6,9.705,81.288,0,63.2,0ZM61.062,54.706c-8.141,0-14.763,4.552-14.763,10.147S52.921,75,61.062,75s14.763-4.552,14.763-10.147S69.2,54.706,61.062,54.706Z" transform="translate(-25.597)"/>
</svg>
