<svg xmlns="http://www.w3.org/2000/svg" xmlns:xlink="http://www.w3.org/1999/xlink" width="75" height="75" viewBox="0 0 75 75">
  <defs>
    <style>
      .cls-1 {
        fill: none;
      }

      .cls-2 {
        clip-path: url(#clip-path);
      }

      .cls-3 {
        fill: #2a2738;
        fill-rule: evenodd;
      }
    </style>
    <clipPath id="clip-path">
      <rect class="cls-1" width="75" height="75"/>
    </clipPath>
  </defs>
  <g id="Settings" class="cls-2">
    <rect id="Rectangle_193" data-name="Rectangle 193" class="cls-1" width="16" height="16"/>
    <path id="Path_104" data-name="Path 104" class="cls-3" d="M296.612,46.875a9.6,9.6,0,0,0,9.763-9.375,9.771,9.771,0,0,0-19.526,0A9.6,9.6,0,0,0,296.612,46.875Zm-20.015-30a27.9,27.9,0,0,1,11.716-6.094L292.218,0h9.763l3.905,10.781A34.545,34.545,0,0,1,317.6,16.875l11.716-2.344,4.882,8.437-7.811,8.438a25.691,25.691,0,0,1,.488,6.094c0,1.875-.488,4.219-.488,6.094l7.811,8.438-4.882,8.438L317.6,58.125a27.9,27.9,0,0,1-11.716,6.094L301.982,75h-9.763l-3.905-10.781A34.546,34.546,0,0,1,276.6,58.125l-11.716,2.344L260,52.031l7.811-8.437a25.691,25.691,0,0,1-.488-6.094c0-1.875.488-4.219.488-6.094L260,22.969l4.882-8.437Z" transform="translate(-260)"/>
  </g>
</svg>
