<svg xmlns="http://www.w3.org/2000/svg" width="15.56" height="15.56" viewBox="0 0 15.56 15.56">
  <path id="share-alt-square-solid" d="M15.56,33.667V45.893a1.667,1.667,0,0,1-1.667,1.667H1.667A1.667,1.667,0,0,1,0,45.893V33.667A1.667,1.667,0,0,1,1.667,32H13.893A1.667,1.667,0,0,1,15.56,33.667Zm-5,7.5a1.938,1.938,0,0,0-1.312.51l-2.36-1.416a1.957,1.957,0,0,0,0-.965l2.36-1.416a1.939,1.939,0,1,0-.572-.953l-2.36,1.416a1.945,1.945,0,1,0,0,2.871l2.36,1.416a1.945,1.945,0,1,0,1.885-1.462Z" transform="translate(0 -32)" fill="#1d1b51"/>
</svg>
