<svg id="Twitter" xmlns="http://www.w3.org/2000/svg" width="64" height="64" viewBox="0 0 64 64">
  <defs>
    <style>
      .cls-1 {
        fill: none;
      }

      .cls-2 {
        fill: #fff;
        fill-rule: evenodd;
      }
    </style>
  </defs>
  <rect id="Rectangle_1457" data-name="Rectangle 1457" class="cls-1" width="64" height="64" transform="translate(0)"/>
  <path id="Path_2" data-name="Path 2" class="cls-2" d="M58.267,53.911C82.444,53.911,95.6,34,95.6,16.578V14.8A28.9,28.9,0,0,0,102,8.044a29.516,29.516,0,0,1-7.467,2.133,13.833,13.833,0,0,0,5.689-7.111,32.612,32.612,0,0,1-8.178,3.2A12.7,12.7,0,0,0,82.444,2,13.359,13.359,0,0,0,69.289,15.156,6.932,6.932,0,0,0,69.644,18,36.76,36.76,0,0,1,42.622,4.133a13.617,13.617,0,0,0-1.778,6.756,14.127,14.127,0,0,0,5.689,11.022,11.986,11.986,0,0,1-6.044-1.778h0a12.994,12.994,0,0,0,10.667,12.8,10.961,10.961,0,0,1-3.556.356,6.051,6.051,0,0,1-2.489-.356,13.47,13.47,0,0,0,12.444,9.244A26.845,26.845,0,0,1,41.2,47.867a9.844,9.844,0,0,1-3.2-.356,33.56,33.56,0,0,0,20.267,6.4" transform="translate(-38)"/>
</svg>
